<mxfile host="Electron" modified="2023-11-04T15:52:57.762Z" agent="Mozilla/5.0 (Windows NT 10.0; Win64; x64) AppleWebKit/537.36 (KHTML, like Gecko) draw.io/22.0.3 Chrome/114.0.5735.289 Electron/25.8.4 Safari/537.36" etag="ruaBC5faaqUiiZ-8-X8D" version="22.0.3" type="device">
  <diagram name="Page-1" id="e7e014a7-5840-1c2e-5031-d8a46d1fe8dd">
    <mxGraphModel dx="683" dy="402" grid="1" gridSize="10" guides="1" tooltips="1" connect="1" arrows="1" fold="1" page="1" pageScale="1" pageWidth="1169" pageHeight="826" background="none" math="0" shadow="0">
      <root>
        <mxCell id="0" />
        <mxCell id="1" parent="0" />
        <mxCell id="ZpAUis7mZ_SPWUMgS9Ey-42" value="Utilizador não registado" style="shape=note2;boundedLbl=1;whiteSpace=wrap;html=1;size=25;verticalAlign=top;align=center;" parent="1" vertex="1">
          <mxGeometry x="90" y="100" width="120" height="80" as="geometry" />
        </mxCell>
        <mxCell id="ZpAUis7mZ_SPWUMgS9Ey-43" style="edgeStyle=orthogonalEdgeStyle;rounded=0;orthogonalLoop=1;jettySize=auto;html=1;entryX=0.206;entryY=0.611;entryDx=0;entryDy=0;entryPerimeter=0;dashed=1;endArrow=none;endFill=0;" parent="1" source="ZpAUis7mZ_SPWUMgS9Ey-42" target="5" edge="1">
          <mxGeometry relative="1" as="geometry" />
        </mxCell>
        <mxCell id="5" value="" style="ellipse;shape=startState;fillColor=#000000;strokeColor=#000000;" parent="1" vertex="1">
          <mxGeometry x="345" y="160" width="30" height="30" as="geometry" />
        </mxCell>
        <mxCell id="ZpAUis7mZ_SPWUMgS9Ey-53" style="edgeStyle=orthogonalEdgeStyle;rounded=0;orthogonalLoop=1;jettySize=auto;html=1;entryX=0.5;entryY=0;entryDx=0;entryDy=0;endArrow=open;endFill=0;" parent="1" source="ZpAUis7mZ_SPWUMgS9Ey-46" target="ZpAUis7mZ_SPWUMgS9Ey-50" edge="1">
          <mxGeometry relative="1" as="geometry" />
        </mxCell>
        <mxCell id="ZpAUis7mZ_SPWUMgS9Ey-46" value="Utilizador preenche formulário de Registro" style="rounded=1;whiteSpace=wrap;html=1;arcSize=40;fontColor=#000000;fillColor=#ffffc0;strokeColor=#000000;" parent="1" vertex="1">
          <mxGeometry x="300" y="220" width="120" height="50" as="geometry" />
        </mxCell>
        <mxCell id="ZpAUis7mZ_SPWUMgS9Ey-49" style="edgeStyle=orthogonalEdgeStyle;rounded=0;orthogonalLoop=1;jettySize=auto;html=1;exitX=0.5;exitY=1;exitDx=0;exitDy=0;entryX=0.5;entryY=0;entryDx=0;entryDy=0;endArrow=open;endFill=0;" parent="1" source="5" target="ZpAUis7mZ_SPWUMgS9Ey-46" edge="1">
          <mxGeometry relative="1" as="geometry" />
        </mxCell>
        <mxCell id="ZpAUis7mZ_SPWUMgS9Ey-50" value="Formulário&amp;nbsp;&amp;nbsp;&lt;br&gt;com Credenciais Validas?" style="rhombus;whiteSpace=wrap;html=1;fontColor=#000000;fillColor=#ffffc0;strokeColor=#000000;" parent="1" vertex="1">
          <mxGeometry x="295" y="290" width="130" height="100" as="geometry" />
        </mxCell>
        <mxCell id="ZpAUis7mZ_SPWUMgS9Ey-51" value="NÃO" style="edgeStyle=orthogonalEdgeStyle;html=1;align=left;verticalAlign=bottom;endArrow=open;endSize=8;strokeColor=#000000;rounded=0;entryX=0.01;entryY=0.512;entryDx=0;entryDy=0;entryPerimeter=0;" parent="1" source="ZpAUis7mZ_SPWUMgS9Ey-50" target="ZpAUis7mZ_SPWUMgS9Ey-54" edge="1">
          <mxGeometry x="-1" relative="1" as="geometry">
            <mxPoint x="510" y="330" as="targetPoint" />
            <Array as="points">
              <mxPoint x="526" y="340" />
            </Array>
          </mxGeometry>
        </mxCell>
        <mxCell id="ZpAUis7mZ_SPWUMgS9Ey-52" value="SIM" style="edgeStyle=orthogonalEdgeStyle;html=1;align=left;verticalAlign=top;endArrow=open;endSize=8;strokeColor=#000000;rounded=0;exitX=0.5;exitY=1;exitDx=0;exitDy=0;" parent="1" edge="1" source="ZpAUis7mZ_SPWUMgS9Ey-50">
          <mxGeometry x="-1" relative="1" as="geometry">
            <mxPoint x="360" y="430" as="targetPoint" />
            <mxPoint x="359.89" y="360" as="sourcePoint" />
            <Array as="points" />
          </mxGeometry>
        </mxCell>
        <mxCell id="ZpAUis7mZ_SPWUMgS9Ey-55" style="edgeStyle=orthogonalEdgeStyle;rounded=0;orthogonalLoop=1;jettySize=auto;html=1;entryX=1;entryY=0.5;entryDx=0;entryDy=0;endArrow=open;endFill=0;" parent="1" source="ZpAUis7mZ_SPWUMgS9Ey-54" target="ZpAUis7mZ_SPWUMgS9Ey-46" edge="1">
          <mxGeometry relative="1" as="geometry">
            <Array as="points">
              <mxPoint x="590" y="245" />
            </Array>
          </mxGeometry>
        </mxCell>
        <mxCell id="ZpAUis7mZ_SPWUMgS9Ey-54" value="Credenciais Invalidas" style="rounded=1;whiteSpace=wrap;html=1;arcSize=40;fontColor=#000000;fillColor=#ffffc0;strokeColor=#000000;" parent="1" vertex="1">
          <mxGeometry x="525" y="320" width="120" height="40" as="geometry" />
        </mxCell>
        <mxCell id="ZpAUis7mZ_SPWUMgS9Ey-58" style="edgeStyle=orthogonalEdgeStyle;rounded=0;orthogonalLoop=1;jettySize=auto;html=1;entryX=0.5;entryY=0;entryDx=0;entryDy=0;endArrow=open;endFill=0;" parent="1" source="ZpAUis7mZ_SPWUMgS9Ey-56" edge="1">
          <mxGeometry relative="1" as="geometry">
            <mxPoint x="360" y="520" as="targetPoint" />
          </mxGeometry>
        </mxCell>
        <mxCell id="ZpAUis7mZ_SPWUMgS9Ey-56" value="Utilizador registado com Sucesso" style="rounded=1;whiteSpace=wrap;html=1;arcSize=40;fontColor=#000000;fillColor=#ffffc0;strokeColor=#000000;" parent="1" vertex="1">
          <mxGeometry x="300" y="430" width="120" height="40" as="geometry" />
        </mxCell>
        <mxCell id="ZpAUis7mZ_SPWUMgS9Ey-60" value="" style="ellipse;html=1;shape=endState;fillColor=#000000;strokeColor=#000000;" parent="1" vertex="1">
          <mxGeometry x="345" y="520" width="30" height="30" as="geometry" />
        </mxCell>
        <mxCell id="ZpAUis7mZ_SPWUMgS9Ey-62" value="Utilizador&amp;nbsp;registado no sistema" style="shape=note2;boundedLbl=1;whiteSpace=wrap;html=1;size=25;verticalAlign=top;align=center;" parent="1" vertex="1">
          <mxGeometry x="500" y="450" width="120" height="80" as="geometry" />
        </mxCell>
        <mxCell id="ZpAUis7mZ_SPWUMgS9Ey-63" style="edgeStyle=orthogonalEdgeStyle;rounded=0;orthogonalLoop=1;jettySize=auto;html=1;entryX=0;entryY=0.5;entryDx=0;entryDy=0;entryPerimeter=0;endArrow=none;endFill=0;dashed=1;" parent="1" source="ZpAUis7mZ_SPWUMgS9Ey-60" target="ZpAUis7mZ_SPWUMgS9Ey-62" edge="1">
          <mxGeometry relative="1" as="geometry" />
        </mxCell>
      </root>
    </mxGraphModel>
  </diagram>
</mxfile>
